<svg width="155" height="155" viewBox="0 0 155 155" fill="none" xmlns="http://www.w3.org/2000/svg">
<path d="M64.155 43.1495C54.1805 45.3014 45.4541 50.9829 39.7651 59.0289C34.0761 67.0748 31.8558 76.8755 33.5595 86.421M64.155 43.1495L50.8062 38M64.155 43.1495L59.7054 54.8421M108.936 96.9473C111.684 91.7143 113.11 85.9487 113.101 80.1052C113.101 61.3263 98.6707 45.7432 79.7287 42.7326M108.936 96.9473L122 88.5263M108.936 96.9473L101.977 84.3158M39.7534 101.158C43.4096 106.343 48.3623 110.593 54.1716 113.531C59.981 116.469 66.4672 118.004 73.0543 118C82.9072 118.012 92.4166 114.574 99.7519 108.349M39.7534 101.158H55.2558M39.7534 101.158V115.895" stroke="white" stroke-width="7.79932" stroke-linecap="round" stroke-linejoin="round"/>
<rect x="1.5" y="1.5" width="152" height="152" rx="39.5" stroke="white" stroke-width="3"/>
</svg>
