<svg width="25" height="24" viewBox="0 0 25 24" fill="none" xmlns="http://www.w3.org/2000/svg">
<path d="M20.976 11.987L21.875 10.955L21.484 10.675L22.109 10.113L21.627 9.756L22.252 9.297L21.849 8.991L22.5 5.881L21.51 3M21.51 3L15.15 5.307H9.85L3.49 3L2.5 5.881L3.164 8.991L2.748 9.297L3.386 9.757L2.904 10.113L3.529 10.674L3.139 10.954L4.037 11.987L2.669 16.117L3.933 20.337L8.376 19.139L9.236 19.827L10.996 21H14.005L15.764 19.827L16.624 19.139L21.08 20.337L22.357 16.117L20.976 11.987" fill="#F5841F"/>
<path d="M21.5099 3L13.7049 8.622L15.1519 5.307L21.5099 3ZM3.48992 3L11.2299 8.673L9.84892 5.307L3.48992 3ZM18.7089 16.041L16.6239 19.126L21.0799 20.324L22.3569 16.104L18.7089 16.041ZM2.66992 16.105L3.93292 20.325L8.37592 19.126L6.30492 16.041L2.66992 16.105Z" fill="#E27625"/>
<path d="M8.14205 10.814L6.90405 12.637L11.3081 12.829L11.1651 8.21396L8.14205 10.814ZM16.8711 10.814L13.7961 8.16296L13.7061 12.829L18.1091 12.637L16.8711 10.814ZM8.37605 19.126L11.0471 17.876L8.74105 16.143L8.37605 19.126ZM13.9661 17.877L16.6241 19.127L16.2591 16.143L13.9661 17.877Z" fill="#E27625"/>
<path d="M16.624 19.126L13.966 17.876L14.187 19.559L14.161 20.273L16.624 19.126ZM8.37598 19.126L10.852 20.273L10.839 19.56L11.047 17.877L8.37598 19.126Z" fill="#D7C1B3"/>
<path d="M10.89 15.0209L8.68896 14.3969L10.252 13.6949L10.89 15.0209ZM14.11 15.0209L14.76 13.6949L16.324 14.3969L14.11 15.0209Z" fill="#2F343B"/>
<path d="M8.37593 19.126L8.76693 16.041L6.30493 16.105L8.37593 19.126ZM16.2459 16.041L16.6239 19.126L18.7089 16.105L16.2459 16.041ZM18.1099 12.637L13.7049 12.829L14.1089 15.021L14.7609 13.695L16.3239 14.397L18.1099 12.637ZM8.68893 14.397L10.2519 13.695L10.8909 15.021L11.3079 12.829L6.90393 12.637L8.68893 14.397Z" fill="#CC6228"/>
<path d="M6.90405 12.637L8.74105 16.143L8.68905 14.397L6.90405 12.637ZM16.3241 14.397L16.2591 16.143L18.1091 12.637L16.3241 14.397ZM11.3081 12.829L10.8911 15.021L11.4121 17.621L11.5291 14.205L11.3081 12.829ZM13.7051 12.829L13.4841 14.193L13.5881 17.622L14.1091 15.022L13.7051 12.829Z" fill="#E27625"/>
<path d="M14.11 15.021L13.588 17.621L13.966 17.877L16.259 16.143L16.324 14.397L14.11 15.021ZM8.68896 14.397L8.74096 16.143L11.047 17.877L11.412 17.622L10.891 15.022L8.68896 14.397Z" fill="#F5841F"/>
<path d="M14.161 20.273L14.187 19.56L13.979 19.394H11.02L10.838 19.56L10.851 20.273L8.375 19.126L9.235 19.814L10.996 21H14.005L15.764 19.814L16.624 19.126L14.161 20.273Z" fill="#C0AD9E"/>
<path d="M13.9661 17.8769L13.5881 17.6219H11.4121L11.0471 17.8769L10.8391 19.5599L11.0211 19.3939H13.9791L14.1871 19.5599L13.9661 17.8769Z" fill="#2F343B"/>
<path d="M21.849 8.992L22.5 5.88L21.51 3L13.966 8.43L16.871 10.814L20.976 11.987L21.875 10.955L21.484 10.675L22.109 10.126L21.627 9.756L22.252 9.297L21.849 8.992ZM2.5 5.881L3.164 8.991L2.748 9.297L3.373 9.769L2.891 10.126L3.516 10.674L3.126 10.954L4.037 11.987L8.142 10.814L11.047 8.431L3.49 3L2.5 5.881Z" fill="#763E1A"/>
<path d="M20.9759 11.987L16.8709 10.814L18.1089 12.637L16.2589 16.143L18.7089 16.105H22.3569L20.9759 11.987ZM8.14195 10.814L4.03695 11.987L2.66895 16.105H6.30495L8.74095 16.143L6.90394 12.637L8.14195 10.814ZM13.7049 12.829L13.9649 8.43101L15.1519 5.30701H9.84895L11.0469 8.43101L11.3069 12.829L11.4119 14.205V17.622H13.5879L13.6009 14.205L13.7049 12.829Z" fill="#F5841F"/>
</svg>
