<svg width="21" height="16" viewBox="0 0 21 16" fill="none" xmlns="http://www.w3.org/2000/svg">
<path d="M8.60496 0H12.395L12.895 5H8.10496L8.60496 0ZM7.90496 7H13.095L13.595 12H11.5V14H13.5C13.7652 14 14.0195 14.1054 14.2071 14.2929C14.3946 14.4804 14.5 14.7348 14.5 15C14.5 15.2652 14.3946 15.5196 14.2071 15.7071C14.0195 15.8946 13.7652 16 13.5 16H7.49996C7.23474 16 6.98039 15.8946 6.79285 15.7071C6.60531 15.5196 6.49996 15.2652 6.49996 15C6.49996 14.7348 6.60531 14.4804 6.79285 14.2929C6.98039 14.1054 7.23474 14 7.49996 14H9.49996V12H7.40496L7.90496 7ZM15.105 7L15.605 12H18.89C19.1119 12 19.331 11.9508 19.5316 11.8559C19.7322 11.7609 19.9093 11.6227 20.05 11.4511C20.1907 11.2795 20.2916 11.0788 20.3453 10.8635C20.3991 10.6482 20.4045 10.4236 20.361 10.206L19.72 7H15.105ZM14.405 0L14.905 5H19.32L18.641 1.608C18.5504 1.15478 18.3056 0.746923 17.9483 0.453773C17.591 0.160624 17.1431 0.000279128 16.681 0H14.405ZM6.59496 0H4.31996C3.8576 4.80373e-05 3.40954 0.160288 3.05202 0.453457C2.69449 0.746625 2.44958 1.15461 2.35896 1.608L1.67996 5H6.09496L6.59496 0ZM5.89496 7H1.27996L0.638957 10.206C0.595477 10.4235 0.600789 10.648 0.654508 10.8632C0.708228 11.0785 0.809019 11.2791 0.949619 11.4507C1.09022 11.6223 1.26713 11.7606 1.4676 11.8555C1.66808 11.9505 1.88712 11.9999 2.10896 12H5.39496L5.89496 7Z" fill="#85A09B"/>
</svg>
